# AST/ASF file generated using VICON BodyLanguage
# -----------------------------------------------
:version 1.10
:name VICON
:units
  mass 1.0
  length 0.45
  angle deg
:documentation
   .ast/.asf automatically generated from VICON data using
   VICON BodyBuilder and BodyLanguage model FoxedUp or BRILLIANT.MOD
:root
   order TX TY TZ RX RY RZ
   axis XYZ
   position 0 0 0  
   orientation 0 0 0 
:bonedata
  begin
     id 1 
     name lhipjoint
     direction 0.700308 -0.549349 0.455834 
     length 2.59063 
     axis 0 0 0  XYZ
  end
  begin
     id 2 
     name lfemur
     direction 0.34202 -0.939693 0  
     length 6.31066  
     axis 0 0 20  XYZ
    dof rx ry rz
    limits (-160.0 20.0)
           (-70.0 70.0)
           (-60.0 70.0)
  end
  begin
     id 3 
     name ltibia
     direction 0.34202 -0.939693 0   
     length 7.36093   
     axis 0 0 20   XYZ
    dof rx
    limits (-10.0 170.0)
  end
  begin
     id 4 
     name lfoot
     direction 0.0905332 -0.248738 0.96433   
     length 2.0233   
     axis -90 7.62852e-016 20   XYZ
    dof rx rz
    limits (-45.0 90.0)
           (-70.0 20.0)
  end
  begin
     id 5 
     name ltoes
     direction 1.53573e-011 -4.21855e-011 1   
     length 1.01524   
     axis -90 7.62852e-016 20   XYZ
    dof rx
    limits (-90.0 20.0)
  end
  begin
     id 6 
     name rhipjoint
     direction -0.61416 -0.607328 0.503944   
     length 2.34332  
     axis 0 0 0  XYZ 
  end
  begin
     id 7 
     name rfemur
     direction -0.34202 -0.939693 0   
     length 6.58548   
     axis 0 0 -20   XYZ
    dof rx ry rz
    limits (-160.0 20.0)
           (-70.0 70.0)
           (-70.0 60.0)
  end
  begin
     id 8 
     name rtibia
     direction -0.34202 -0.939693 0   
     length 7.20707   
     axis 0 0 -20   XYZ
    dof rx
    limits (-10.0 170.0)
 end
 begin
     id 9 
     name rfoot
     direction -0.136772 -0.375778 0.916561   
     length 1.92184  
     axis -90 -7.62852e-016 -20   XYZ
    dof rx rz
    limits (-45.0 90.0)
           (-20.0 70.0)
  end
  begin
     id 10 
     name rtoes
     direction -1.53535e-011 -4.21828e-011 1   
     length 0.951089   
     axis -90 -7.62852e-016 -20   XYZ
    dof rx
    limits (-90.0 20.0)
  end
  begin
     id 11 
     name lowerback
     direction -0.0444974 0.988086 -0.147332   
     length 1.9609   
     axis 0 0 0   XYZ
    dof rx ry rz
    limits (-20.0 45.0)
           (-30.0 30.0)
           (-30.0 30.0)
  end
  begin
     id 12 
     name upperback
     direction 0.00613146 0.999513 0.0306081   
     length 1.94944   
     axis 0 0 0   XYZ
    dof rx ry rz
    limits (-20.0 45.0)
           (-30.0 30.0)
           (-30.0 30.0)
  end
  begin
     id 13 
     name thorax
     direction 0.0254621 0.994518 0.101418   
     length 2.0119   
     axis 0 0 0   XYZ
    dof rx ry rz
    limits (-20.0 45.0)
           (-30.0 30.0)
           (-30.0 30.0)
  end
  begin
     id 14 
     name lowerneck
     direction 0.0168698 0.977854 0.208608   
     length 1.6375   
     axis 0 0 0   XYZ
    dof rx ry rz
    limits (-20.0 45.0)
           (-30.0 30.0)
           (-30.0 30.0)
  end
  begin
     id 15 
     name upperneck
     direction -0.0283988 0.989338 -0.142843   
     length 1.6851   
     axis 0 0 0   XYZ
    dof rx ry rz
    limits (-20.0 45.0)
           (-30.0 30.0)
           (-30.0 30.0)
  end
  begin
     id 16
     name head
     direction -0.0129422 0.99741 -0.0707489  
     length 1.69029  
     axis 0 0 0   XYZ
    dof rx ry rz
    limits (-20.0 45.0)
           (-30.0 30.0)
           (-30.0 30.0)
  end
  begin
     id 17 
     name lclavicle
     direction 0.820295 0.564628 -0.0911715  
     length 3.16484  
     axis 0 0 0   XYZ
    dof ry rz
    limits (-20.0 10.0)
           (0.0 20.0)
  end
  begin
     id 18 
     name lhumerus
     direction 1 -4.48969e-011 1.00186e-027   
     length 5.17853   
     axis 180 -30 -90   XYZ
    dof rx ry rz
    limits (-60.0 90.0)
           (-90.0 90.0)
           (-90.0 90.0)
  end
  begin
     id 19
     name lradius
     direction 1 -4.48966e-011 -1.52922e-027   
     length 3.40399   
     axis 180 -30 -90   XYZ
    dof rx
    limits (-10.0 170.0)
  end
  begin
     id 20
     name lwrist
     direction 1 -4.48981e-011 -3.80893e-027   
     length 1.70199   
     axis 1.1049e-015 90 90   XYZ
    dof ry
    limits (-180.0 0.0)
 end
  begin
     id 21 
     name lhand
     direction 1 -4.48957e-011 -7.61786e-027   
     length 0.708964   
     axis 4.86085e-015 90 90   XYZ
    dof rx rz
    limits (-90.0 90.0)
           (-45.0 45.0)
  end
  begin
     id 22 
     name lfingers
     direction 1 -4.48929e-011 -1.52357e-026   
     length 0.571585   
     axis 9.7217e-015 90 90   XYZ
    dof rx
    limits (0.0 90.0)
  end
  begin
     id 23
     name lthumb
     direction 0.707107 -6.34905e-011 0.707107   
     length 0.820685   
     axis -90 45 2.85299e-015   XYZ
    dof rx rz
    limits (-45.0 45.0)
           (-45.0 45.0)
  end
  begin
     id 24 
     name rclavicle
     direction -0.858602 0.463947 -0.218075   
     length 3.35137  
     axis 0 0 0   XYZ 
    dof ry rz
    limits (-10.0 20.0)
           (-20.0 0.0)
  end
  begin
     id 25 
     name rhumerus
     direction -1 -4.48969e-011 -1.98511e-027  
     length 5.42351   
     axis 180 30 90   XYZ
    dof rx ry rz
    limits (-90.0 60.0)
           (-90.0 90.0)
           (-90.0 90.0)
  end
  begin
     id 26 
     name rradius
     direction -1 -4.48961e-011 -2.82624e-027   
     length 3.42066   
     axis 180 30 90   XYZ
    dof rx
    limits (-10.0 170.0)
  end
  begin
     id 27 
     name rwrist
     direction -1 -4.48966e-011 -3.80893e-027   
     length 1.71033   
     axis 1.1049e-015 -90 -90   XYZ
    dof ry
    limits (-180.0 0.0)
  end
  begin
     id 28
     name rhand
     direction -1 -4.48964e-011 -7.61786e-027   
     length 0.743608   
     axis 4.86085e-015 -90 -90   XYZ
    dof rx rz
    limits (-90.0 90.0)
           (-45.0 45.0)
  end
  begin
     id 29
     name rfingers
     direction -1 -4.48961e-011 -1.52357e-026   
     length 0.599516   
     axis 9.7217e-015 -90 -90   XYZ
    dof rx
    limits (0.0 90.0)
  end
  begin
     id 30
     name rthumb
     direction -0.707107 -6.34913e-011 0.707107   
     length 0.860789   
     axis -90 -45 -2.85299e-015   XYZ
    dof rx rz
    limits (-45.0 45.0)
           (-45.0 45.0)
  end
:hierarchy
  begin
    root lhipjoint rhipjoint lowerback
    lhipjoint lfemur
    lfemur ltibia
    ltibia lfoot
    lfoot ltoes
    rhipjoint rfemur
    rfemur rtibia
    rtibia rfoot
    rfoot rtoes
    lowerback upperback
    upperback thorax
    thorax lowerneck lclavicle rclavicle
    lowerneck upperneck
    upperneck head
    lclavicle lhumerus
    lhumerus lradius
    lradius lwrist
    lwrist lhand lthumb
    lhand lfingers
    rclavicle rhumerus
    rhumerus rradius
    rradius rwrist
    rwrist rhand rthumb
    rhand rfingers
  end

#!OML:ASF E:\mmandel\Project 1\Capture day 1\Session 2\Subject.ASF
:FULLY-SPECIFIED
:DEGREES
85
root -4.90565 1.57472 -1.42604 -6.2495 82.4579 96.0605
lowerback 19.8578 1.3206 2.03544
upperback 3.4901 2.72526 3.75725
thorax -7.42111 1.4297 2.18125
lowerneck -24.3801 -2.90376 -4.6992
upperneck 22.1847 -4.91136 9.62257
head 11.6817 -1.26889 3.55537
rclavicle -4.41302e-014 -4.46023e-014
rhumerus -20.1164 33.0497 -29.8863
rradius 32.26
rwrist 7.71709
rhand 17.5057 24.4924
rfingers 7.12502
rthumb 42.2048 -0.0286398
lclavicle -4.41302e-014 -4.46023e-014
lhumerus -19.6458 -27.9621 24.5864
lradius 21.8552
lwrist 11.3435
lhand -15.3764 -21.1376
lfingers 7.12502
lthumb 10.8017 8.56469
rfemur -0.778997 -38.6054 -4.44279
rtibia 49.2756
rfoot -2.20195 -18.8789
rtoes -2.46599
lfemur -16.9942 16.8439 -4.5714
ltibia 74.5659
lfoot 4.57096 0.667785
ltoes 4.04158
86
root -4.90929 1.57529 -1.42585 -6.97463 82.4586 95.2975
lowerback 19.8162 1.29982 2.13561
upperback 3.49638 2.7201 3.79024
thorax -7.38905 1.42581 2.16214
lowerneck -24.2965 -2.91298 -4.83503
upperneck 22.424 -4.93054 9.75203
head 11.7669 -1.26692 3.63223
rclavicle -5.28767e-014 1.07443e-013
rhumerus -19.9282 32.9729 -29.9145
rradius 32.3869
rwrist 7.62205
rhand 17.6117 24.6058
rfingers 7.12502
rthumb 42.3041 0.118453
lclavicle -5.28767e-014 1.07443e-013
lhumerus -19.382 -28.2147 24.5794
lradius 22.1048
lwrist 11.6937
lhand -15.3212 -21.1584
lfingers 7.12502
lthumb 10.8549 8.54102
rfemur -0.786924 -38.5968 -4.30564
rtibia 49.234
rfoot -2.18268 -18.8848
rtoes -2.39005
lfemur -17.0402 16.8635 -4.46069
ltibia 74.6098
lfoot 4.49554 0.622228
ltoes 4.44105
87
root -4.91084 1.57632 -1.42629 -7.62453 82.4299 94.6338
lowerback 19.7609 1.2577 2.09983
upperback 3.54764 2.66557 3.91487
thorax -7.3101 1.40414 2.33286
lowerneck -24.2459 -2.95044 -5.20319
upperneck 22.6884 -4.92585 9.95639
head 11.8742 -1.26521 3.78299
rclavicle 3.33958e-014 -3.35201e-014
rhumerus -19.439 33.3104 -29.7737
rradius 32.4226
rwrist 7.33794
rhand 17.5659 24.778
rfingers 7.12502
rthumb 42.2611 0.276057
lclavicle 3.33958e-014 -3.35201e-014
lhumerus -19.2825 -27.862 24.7065
lradius 22.1964
lwrist 11.5399
lhand -15.5511 -21.4033
lfingers 7.12502
lthumb 10.6332 8.3077
rfemur -0.790501 -38.5504 -4.17294
rtibia 49.1957
rfoot -2.22083 -18.9035
rtoes -2.28233
lfemur -17.0271 16.8693 -4.3642
ltibia 74.6309
lfoot 4.47335 0.618647
ltoes 4.65488
88
root -4.90899 1.57772 -1.42717 -7.97815 82.3815 94.306
lowerback 19.7348 1.23427 2.04171
upperback 3.58465 2.62701 3.9825
thorax -7.26067 1.389 2.44978
lowerneck -24.07 -2.93999 -5.36975
upperneck 22.9591 -4.9019 10.05
head 11.9495 -1.25366 3.86071
rclavicle -9.93923e-015 -3.52843e-015
rhumerus -19.0703 33.8104 -29.7368
rradius 32.5081
rwrist 6.92626
rhand 17.5571 24.7837
rfingers 7.12502
rthumb 42.253 0.27901
lclavicle -9.93923e-015 -3.52843e-015
lhumerus -19.1837 -27.375 24.7533
lradius 22.2486
lwrist 11.1306
lhand -15.7399 -21.7688
lfingers 7.12502
lthumb 10.4511 7.95147
rfemur -0.758101 -38.4958 -4.12216
rtibia 49.1635
rfoot -2.19412 -18.8759
rtoes -2.11801
lfemur -16.9823 16.9376 -4.28672
ltibia 74.648
lfoot 4.44293 0.523724
ltoes 4.53799
89
root -4.90721 1.57819 -1.42727 -8.34972 82.3842 93.9236
lowerback 19.6913 1.21537 2.05316
upperback 3.60272 2.60488 4.01322
thorax -7.21801 1.37908 2.48301
lowerneck -24.1585 -2.88391 -5.31747
upperneck 23.4087 -4.86326 10.009
head 12.1346 -1.22292 3.85988
rclavicle -3.77691e-014 -8.67695e-014
rhumerus -18.9139 34.0822 -29.7798
rradius 32.7672
rwrist 6.53797
rhand 17.5715 24.5805
rfingers 7.12502
rthumb 42.2664 0.0803935
lclavicle -3.77691e-014 -8.67695e-014
lhumerus -18.9748 -27.3171 24.7543
lradius 22.3801
lwrist 11.2858
lhand -15.6868 -21.8848
lfingers 7.12502
lthumb 10.5023 7.8328
rfemur -0.740397 -38.4989 -4.06234
rtibia 49.1208
rfoot -2.10629 -18.8706
rtoes -2.15878
lfemur -17.0183 16.9923 -4.2108
ltibia 74.6781
lfoot 4.4488 0.396511
ltoes 4.36621
90
root -4.90684 1.5782 -1.42658 -8.85125 82.4151 93.3962
lowerback 19.6477 1.19797 2.12818
upperback 3.638 2.5974 4.0347
thorax -7.15394 1.3754 2.4662
lowerneck -24.2788 -3.02047 -5.57706
upperneck 23.7777 -5.03746 10.1854
head 12.3325 -1.2875 3.9574
rclavicle -9.02482e-014 8.5055e-014
rhumerus -18.8238 33.9286 -29.8236
rradius 33.0753
rwrist 6.48012
rhand 17.5933 24.4904
rfingers 7.12502
rthumb 42.2869 -0.00276113
lclavicle -9.02482e-014 8.5055e-014
lhumerus -18.5976 -27.6676 24.7244
lradius 22.5048
lwrist 11.7442
lhand -15.5729 -21.8169
lfingers 7.12502
lthumb 10.6121 7.89513
rfemur -0.71538 -38.5327 -3.98217
rtibia 49.0622
rfoot -2.04894 -18.8899
rtoes -2.20855
lfemur -17.0689 16.985 -4.12916
ltibia 74.6986
lfoot 4.45302 0.333546
ltoes 4.13766
91
root -4.90964 1.5788 -1.42707 -9.39345 82.3913 92.865
lowerback 19.6445 1.18059 2.19866
upperback 3.66511 2.59162 4.06164
thorax -7.12093 1.37253 2.4568
lowerneck -24.1367 -3.17715 -5.95774
upperneck 23.9941 -5.21561 10.4448
head 12.4276 -1.3637 4.10127
rclavicle -3.65764e-014 1.17531e-014
rhumerus -18.6832 33.9093 -29.8472
rradius 33.3698
rwrist 6.33289
rhand 17.8426 24.5905
rfingers 7.12502
rthumb 42.5203 0.177172
lclavicle -3.65764e-014 1.17531e-014
lhumerus -18.3472 -28.0601 24.7443
lradius 22.6797
lwrist 12.0399
lhand -15.7593 -21.758
lfingers 7.12502
lthumb 10.4323 7.96321
rfemur -0.650513 -38.4889 -3.90654
rtibia 48.976
rfoot -2.1637 -18.9038
rtoes -2.39596
lfemur -17.0469 16.9483 -4.05444
ltibia 74.7111
lfoot 4.35144 0.335727
ltoes 4.05085
92
root -4.91025 1.57938 -1.42782 -9.95182 82.3672 92.3678
lowerback 19.7121 1.15774 2.24154
upperback 3.67147 2.57785 4.09683
thorax -7.14979 1.36592 2.47295
lowerneck -23.9822 -3.17063 -6.09353
upperneck 24.3259 -5.21912 10.5542
head 12.5364 -1.35696 4.18078
rclavicle 4.01545e-014 2.0276e-014
rhumerus -18.5676 34.2793 -29.91
rradius 33.6159
rwrist 5.88959
rhand 17.8786 24.6796
rfingers 7.12502
rthumb 42.554 0.277915
lclavicle 4.01545e-014 2.0276e-014
lhumerus -18.1406 -27.8276 24.7124
lradius 22.8544
lwrist 11.9893
lhand -15.8999 -21.9442
lfingers 7.12502
lthumb 10.2967 7.78374
rfemur -0.51883 -38.4145 -3.87056
rtibia 48.8789
rfoot -2.3041 -18.9351
rtoes -2.55826
lfemur -16.9546 16.8756 -3.97725
ltibia 74.721
lfoot 4.25611 0.372591
ltoes 4.5328
93
root -4.91043 1.5802 -1.42797 -10.6052 82.3642 91.7512
lowerback 19.7538 1.14041 2.32375
upperback 3.66855 2.57503 4.09853
thorax -7.17182 1.36286 2.42801
lowerneck -23.768 -3.1339 -6.00882
upperneck 24.6264 -5.21552 10.5039
head 12.6087 -1.34909 4.15911
rclavicle -1.23246e-014 -3.10601e-014
rhumerus -18.5324 34.9095 -30.0684
rradius 33.795
rwrist 5.23543
rhand 17.3804 24.6169
rfingers 7.12502
rthumb 42.0873 0.0561612
lclavicle -1.23246e-014 -3.10601e-014
lhumerus -17.8001 -27.2724 24.524
lradius 23.0002
lwrist 11.7985
lhand -15.5965 -22.2804
lfingers 7.12502
lthumb 10.5894 7.43279
rfemur -0.412729 -38.382 -3.81192
rtibia 48.791
rfoot -2.32493 -18.9699
rtoes -2.35829
lfemur -16.8959 16.8106 -3.89261
ltibia 74.7186
lfoot 4.22972 0.389055
ltoes 4.5601
94
root -4.91297 1.58125 -1.4283 -11.1205 82.3355 91.2242
lowerback 19.7428 1.12511 2.36266
upperback 3.67124 2.56462 4.12274
thorax -7.16224 1.35752 2.43495
lowerneck -23.6235 -3.12158 -5.99288
upperneck 24.9271 -5.22741 10.4849
head 12.6999 -1.34908 4.15945
rclavicle -3.4191e-014 5.41688e-014
rhumerus -18.3862 35.1713 -30.1243
rradius 33.9771
rwrist 4.84881
rhand 17.0856 24.5629
rfingers 7.12502
rthumb 41.811 -0.0901094
lclavicle -3.4191e-014 5.41688e-014
lhumerus -17.5821 -26.9806 24.4408
lradius 23.1905
lwrist 11.7684
lhand -15.2952 -22.5279
lfingers 7.12502
lthumb 10.88 7.17029
rfemur -0.391597 -38.3502 -3.71169
rtibia 48.7209
rfoot -2.29267 -18.9843
rtoes -2.0953
lfemur -16.9018 16.8182 -3.82202
ltibia 74.7228
lfoot 4.22266 0.373872
ltoes 3.98749
95
root -4.91623 1.58203 -1.42793 -11.5127 82.2871 90.7777
lowerback 19.7038 1.11488 2.33653
upperback 3.66857 2.54843 4.17895
thorax -7.14766 1.35112 2.51555
lowerneck -23.6057 -3.07754 -6.02942
upperneck 25.3458 -5.21492 10.5915
head 12.8687 -1.31931 4.23004
rclavicle 2.90226e-014 -2.62396e-014
rhumerus -18.1414 35.2978 -30.0908
rradius 34.1501
rwrist 4.57635
rhand 17.0832 24.6376
rfingers 7.12502
rthumb 41.8088 -0.0161255
lclavicle 2.90226e-014 -2.62396e-014
lhumerus -17.535 -26.9254 24.5
lradius 23.4344
lwrist 12.0086
lhand -15.292 -22.7718
lfingers 7.12502
lthumb 10.8831 6.92619
rfemur -0.450244 -38.3188 -3.57216
rtibia 48.6772
rfoot -2.27323 -18.9965
rtoes -1.87784
lfemur -16.9398 16.8691 -3.751
ltibia 74.7292
lfoot 4.21472 0.353605
ltoes 3.74094
96
root -4.91837 1.58327 -1.42721 -12.0766 82.2784 90.1848
lowerback 19.6569 1.0791 2.35562
upperback 3.69662 2.5069 4.228
thorax -7.09231 1.33234 2.56919
lowerneck -23.6469 -3.16385 -6.37751
upperneck 25.8446 -5.38392 11.0478
head 13.1272 -1.34692 4.46952
rclavicle 2.54444e-014 2.13445e-014
rhumerus -17.9696 35.5662 -30.1439
rradius 34.3729
rwrist 4.14891
rhand 17.0216 24.6291
rfingers 7.12502
rthumb 41.751 -0.0437857
lclavicle 2.54444e-014 2.13445e-014
lhumerus -17.5253 -27.363 24.5782
lradius 23.7674
lwrist 12.7131
lhand -15.5644 -22.7185
lfingers 7.12502
lthumb 10.6204 6.99317
rfemur -0.441339 -38.3315 -3.47298
rtibia 48.6472
rfoot -2.325 -18.9875
rtoes -1.70739
lfemur -16.9625 16.8662 -3.66571
ltibia 74.7274
lfoot 4.233 0.367226
ltoes 3.82047
97
root -4.91821 1.58438 -1.42822 -12.5149 82.2711 89.7376
lowerback 19.6046 1.06595 2.49162
upperback 3.76904 2.51233 4.20466
thorax -6.97909 1.33419 2.46578
lowerneck -23.9077 -3.32919 -6.66538
upperneck 26.5157 -5.66759 11.3914
head 13.5158 -1.42437 4.64637
rclavicle 4.13472e-014 6.48535e-015
rhumerus -18.0639 35.0851 -30.3439
rradius 34.7387
rwrist 4.18348
rhand 17.0933 24.5469
rfingers 7.12502
rthumb 41.8182 -0.103754
lclavicle 4.13472e-014 6.48535e-015
lhumerus -17.277 -28.0176 24.5125
lradius 24.1666
lwrist 13.61
lhand -15.7824 -22.4584
lfingers 7.12502
lthumb 10.4101 7.2639
rfemur -0.41887 -38.348 -3.41958
rtibia 48.6249
rfoot -2.35511 -18.9717
rtoes -1.60739
lfemur -16.9768 16.8739 -3.59917
ltibia 74.7382
lfoot 4.24092 0.371701
ltoes 4.09681
98
root -4.91783 1.58394 -1.42942 -12.9097 82.2105 89.3232
lowerback 19.5781 1.08787 2.64699
upperback 3.83382 2.56802 4.16559
thorax -6.88774 1.35985 2.32141
lowerneck -24.1407 -3.49758 -6.87052
upperneck 27.1428 -5.9433 11.5891
head 13.8792 -1.51198 4.75054
rclavicle 1.15295e-014 -2.15433e-014
rhumerus -18.1851 34.3572 -30.5001
rradius 35.1079
rwrist 4.52744
rhand 17.0764 24.6144
rfingers 7.12502
rthumb 41.8024 -0.0414937
lclavicle 1.15295e-014 -2.15433e-014
lhumerus -16.9157 -28.2058 24.3799
lradius 24.4941
lwrist 14.219
lhand -15.979 -22.4224
lfingers 7.12502
lthumb 10.2205 7.30932
rfemur -0.458762 -38.319 -3.31474
rtibia 48.604
rfoot -2.34528 -18.9868
rtoes -1.51932
lfemur -16.9845 16.943 -3.51619
ltibia 74.7592
lfoot 4.26098 0.342154
ltoes 4.21995
99
root -4.91648 1.58353 -1.42929 -13.2583 82.1587 88.9879
lowerback 19.5743 1.07663 2.64014
upperback 3.9052 2.55594 4.21742
thorax -6.81084 1.35752 2.38459
lowerneck -24.0641 -3.57307 -7.00465
upperneck 27.4262 -6.01812 11.5517
head 13.9959 -1.55801 4.76029
rclavicle -1.11717e-013 5.29016e-014
rhumerus -17.9635 34.0921 -30.4412
rradius 35.3716
rwrist 4.63517
rhand 17.1458 24.8095
rfingers 7.12502
rthumb 41.8675 0.175221
lclavicle -1.11717e-013 5.29016e-014
lhumerus -16.7725 -27.7445 24.3792
lradius 24.6878
lwrist 14.1829
lhand -16.2965 -22.7223
lfingers 7.12502
lthumb 9.9141 7.02428
rfemur -0.5083 -38.096 -3.12826
rtibia 48.574
rfoot -2.45127 -19.1597
rtoes -1.41005
lfemur -16.9574 16.9941 -3.43093
ltibia 74.7815
lfoot 4.27033 0.292618
ltoes 3.95778
